<mxfile host="Electron" modified="2024-03-23T15:04:30.890Z" agent="Mozilla/5.0 (Windows NT 10.0; Win64; x64) AppleWebKit/537.36 (KHTML, like Gecko) draw.io/24.0.4 Chrome/120.0.6099.109 Electron/28.1.0 Safari/537.36" etag="39xEf5q5y6CHx01IwVRD" version="24.0.4" type="device">
  <diagram name="PRJ11" id="bcD2LdSix-8SxdaO5_wZ">
    <mxGraphModel dx="1714" dy="637" grid="0" gridSize="10" guides="1" tooltips="1" connect="1" arrows="1" fold="1" page="0" pageScale="1" pageWidth="827" pageHeight="1169" math="0" shadow="0">
      <root>
        <mxCell id="0" />
        <mxCell id="1" parent="0" />
        <mxCell id="0W-4UYzcIwwv0_ICQPqD-37" value="services" style="shape=umlFrame;whiteSpace=wrap;html=1;pointerEvents=0;strokeColor=#BAC8D3;align=center;verticalAlign=middle;fontFamily=Courier New;fontSize=12;fontColor=#EEEEEE;fontStyle=1;labelBackgroundColor=none;fillColor=#09555B;width=104;height=31;" vertex="1" parent="1">
          <mxGeometry x="5" y="727" width="767" height="145" as="geometry" />
        </mxCell>
        <mxCell id="0W-4UYzcIwwv0_ICQPqD-17" value="" style="edgeStyle=orthogonalEdgeStyle;rounded=0;orthogonalLoop=1;jettySize=auto;html=1;strokeColor=#0B4D6A;fontFamily=Courier New;fontSize=12;fontColor=#EEEEEE;fontStyle=1;labelBackgroundColor=none;endArrow=open;endFill=0;endSize=10;startSize=10;" edge="1" parent="1" source="0W-4UYzcIwwv0_ICQPqD-1" target="0W-4UYzcIwwv0_ICQPqD-12">
          <mxGeometry relative="1" as="geometry" />
        </mxCell>
        <mxCell id="0W-4UYzcIwwv0_ICQPqD-1" value="Contract" style="swimlane;fontStyle=1;align=center;verticalAlign=top;childLayout=stackLayout;horizontal=1;startSize=26;horizontalStack=0;resizeParent=1;resizeParentMax=0;resizeLast=0;collapsible=1;marginBottom=0;whiteSpace=wrap;html=1;strokeColor=#BAC8D3;fontColor=#EEEEEE;fillColor=#09555B;labelBackgroundColor=none;fontFamily=Courier New;" vertex="1" parent="1">
          <mxGeometry x="382" y="488" width="160" height="112" as="geometry" />
        </mxCell>
        <mxCell id="0W-4UYzcIwwv0_ICQPqD-9" value="- number:Integer" style="text;strokeColor=none;fillColor=none;align=left;verticalAlign=top;spacingLeft=4;spacingRight=4;overflow=hidden;rotatable=0;points=[[0,0.5],[1,0.5]];portConstraint=eastwest;whiteSpace=wrap;html=1;fontColor=#EEEEEE;labelBackgroundColor=none;fontFamily=Courier New;" vertex="1" parent="0W-4UYzcIwwv0_ICQPqD-1">
          <mxGeometry y="26" width="160" height="26" as="geometry" />
        </mxCell>
        <mxCell id="0W-4UYzcIwwv0_ICQPqD-2" value="- date:LocalDate" style="text;strokeColor=none;fillColor=none;align=left;verticalAlign=top;spacingLeft=4;spacingRight=4;overflow=hidden;rotatable=0;points=[[0,0.5],[1,0.5]];portConstraint=eastwest;whiteSpace=wrap;html=1;fontColor=#EEEEEE;labelBackgroundColor=none;fontFamily=Courier New;" vertex="1" parent="0W-4UYzcIwwv0_ICQPqD-1">
          <mxGeometry y="52" width="160" height="26" as="geometry" />
        </mxCell>
        <mxCell id="0W-4UYzcIwwv0_ICQPqD-10" value="- total:Double" style="text;strokeColor=none;fillColor=none;align=left;verticalAlign=top;spacingLeft=4;spacingRight=4;overflow=hidden;rotatable=0;points=[[0,0.5],[1,0.5]];portConstraint=eastwest;whiteSpace=wrap;html=1;fontColor=#EEEEEE;labelBackgroundColor=none;fontFamily=Courier New;" vertex="1" parent="0W-4UYzcIwwv0_ICQPqD-1">
          <mxGeometry y="78" width="160" height="26" as="geometry" />
        </mxCell>
        <mxCell id="0W-4UYzcIwwv0_ICQPqD-3" value="" style="line;strokeWidth=1;fillColor=none;align=left;verticalAlign=middle;spacingTop=-1;spacingLeft=3;spacingRight=3;rotatable=0;labelPosition=right;points=[];portConstraint=eastwest;strokeColor=#BAC8D3;fontColor=#EEEEEE;labelBackgroundColor=none;fontFamily=Courier New;" vertex="1" parent="0W-4UYzcIwwv0_ICQPqD-1">
          <mxGeometry y="104" width="160" height="8" as="geometry" />
        </mxCell>
        <mxCell id="0W-4UYzcIwwv0_ICQPqD-12" value="Installment" style="swimlane;fontStyle=1;align=center;verticalAlign=top;childLayout=stackLayout;horizontal=1;startSize=26;horizontalStack=0;resizeParent=1;resizeParentMax=0;resizeLast=0;collapsible=1;marginBottom=0;whiteSpace=wrap;html=1;strokeColor=#BAC8D3;fontColor=#EEEEEE;fillColor=#09555B;labelBackgroundColor=none;fontFamily=Courier New;" vertex="1" parent="1">
          <mxGeometry x="632" y="501" width="160" height="86" as="geometry" />
        </mxCell>
        <mxCell id="0W-4UYzcIwwv0_ICQPqD-14" value="- date:LocalDate" style="text;strokeColor=none;fillColor=none;align=left;verticalAlign=top;spacingLeft=4;spacingRight=4;overflow=hidden;rotatable=0;points=[[0,0.5],[1,0.5]];portConstraint=eastwest;whiteSpace=wrap;html=1;fontColor=#EEEEEE;labelBackgroundColor=none;fontFamily=Courier New;" vertex="1" parent="0W-4UYzcIwwv0_ICQPqD-12">
          <mxGeometry y="26" width="160" height="26" as="geometry" />
        </mxCell>
        <mxCell id="0W-4UYzcIwwv0_ICQPqD-15" value="- amount:Double" style="text;strokeColor=none;fillColor=none;align=left;verticalAlign=top;spacingLeft=4;spacingRight=4;overflow=hidden;rotatable=0;points=[[0,0.5],[1,0.5]];portConstraint=eastwest;whiteSpace=wrap;html=1;fontColor=#EEEEEE;labelBackgroundColor=none;fontFamily=Courier New;" vertex="1" parent="0W-4UYzcIwwv0_ICQPqD-12">
          <mxGeometry y="52" width="160" height="26" as="geometry" />
        </mxCell>
        <mxCell id="0W-4UYzcIwwv0_ICQPqD-16" value="" style="line;strokeWidth=1;fillColor=none;align=left;verticalAlign=middle;spacingTop=-1;spacingLeft=3;spacingRight=3;rotatable=0;labelPosition=right;points=[];portConstraint=eastwest;strokeColor=#BAC8D3;fontColor=#EEEEEE;labelBackgroundColor=none;fontFamily=Courier New;" vertex="1" parent="0W-4UYzcIwwv0_ICQPqD-12">
          <mxGeometry y="78" width="160" height="8" as="geometry" />
        </mxCell>
        <mxCell id="0W-4UYzcIwwv0_ICQPqD-29" style="edgeStyle=orthogonalEdgeStyle;rounded=0;orthogonalLoop=1;jettySize=auto;html=1;strokeColor=#0B4D6A;align=center;verticalAlign=middle;fontFamily=Courier New;fontSize=12;fontColor=#EEEEEE;fontStyle=1;labelBackgroundColor=none;startSize=10;endArrow=open;endFill=0;endSize=10;" edge="1" parent="1" source="0W-4UYzcIwwv0_ICQPqD-18" target="0W-4UYzcIwwv0_ICQPqD-22">
          <mxGeometry relative="1" as="geometry">
            <Array as="points">
              <mxPoint x="229" y="908" />
              <mxPoint x="994" y="908" />
            </Array>
          </mxGeometry>
        </mxCell>
        <mxCell id="0W-4UYzcIwwv0_ICQPqD-18" value="ContractProcessor" style="swimlane;fontStyle=1;align=center;verticalAlign=top;childLayout=stackLayout;horizontal=1;startSize=26;horizontalStack=0;resizeParent=1;resizeParentMax=0;resizeLast=0;collapsible=1;marginBottom=0;whiteSpace=wrap;html=1;strokeColor=#BAC8D3;fontFamily=Courier New;fontSize=12;fontColor=#EEEEEE;labelBackgroundColor=none;fillColor=#09555B;" vertex="1" parent="1">
          <mxGeometry x="12" y="766.5" width="386" height="60" as="geometry" />
        </mxCell>
        <mxCell id="0W-4UYzcIwwv0_ICQPqD-20" value="" style="line;strokeWidth=1;fillColor=none;align=left;verticalAlign=middle;spacingTop=-1;spacingLeft=3;spacingRight=3;rotatable=0;labelPosition=right;points=[];portConstraint=eastwest;strokeColor=inherit;fontFamily=Courier New;fontSize=12;fontColor=#EEEEEE;fontStyle=1;labelBackgroundColor=none;" vertex="1" parent="0W-4UYzcIwwv0_ICQPqD-18">
          <mxGeometry y="26" width="386" height="8" as="geometry" />
        </mxCell>
        <mxCell id="0W-4UYzcIwwv0_ICQPqD-21" value="+ processInstallments(Contract, qtMonths:int): void" style="text;strokeColor=none;fillColor=none;align=left;verticalAlign=top;spacingLeft=4;spacingRight=4;overflow=hidden;rotatable=0;points=[[0,0.5],[1,0.5]];portConstraint=eastwest;whiteSpace=wrap;html=1;fontFamily=Courier New;fontSize=12;fontColor=#EEEEEE;fontStyle=1;labelBackgroundColor=none;" vertex="1" parent="0W-4UYzcIwwv0_ICQPqD-18">
          <mxGeometry y="34" width="386" height="26" as="geometry" />
        </mxCell>
        <mxCell id="0W-4UYzcIwwv0_ICQPqD-34" value="" style="edgeStyle=orthogonalEdgeStyle;rounded=0;orthogonalLoop=1;jettySize=auto;html=1;strokeColor=#0B4D6A;align=center;verticalAlign=middle;fontFamily=Courier New;fontSize=12;fontColor=#EEEEEE;fontStyle=1;labelBackgroundColor=none;startSize=10;endArrow=none;endFill=0;endSize=10;startArrow=block;startFill=0;" edge="1" parent="1" source="0W-4UYzcIwwv0_ICQPqD-22" target="0W-4UYzcIwwv0_ICQPqD-30">
          <mxGeometry relative="1" as="geometry">
            <Array as="points">
              <mxPoint x="908" y="796" />
              <mxPoint x="908" y="796" />
            </Array>
          </mxGeometry>
        </mxCell>
        <mxCell id="0W-4UYzcIwwv0_ICQPqD-22" value="«Interface»&lt;div&gt;PaymentService&lt;/div&gt;" style="swimlane;fontStyle=1;align=center;verticalAlign=middle;childLayout=stackLayout;horizontal=1;startSize=43;horizontalStack=0;resizeParent=1;resizeParentMax=0;resizeLast=0;collapsible=1;marginBottom=0;whiteSpace=wrap;html=1;strokeColor=#BAC8D3;fontFamily=Courier New;fontSize=12;fontColor=#EEEEEE;labelBackgroundColor=none;fillColor=#09555B;" vertex="1" parent="1">
          <mxGeometry x="886.5" y="755" width="335" height="103" as="geometry" />
        </mxCell>
        <mxCell id="0W-4UYzcIwwv0_ICQPqD-24" value="" style="line;strokeWidth=1;fillColor=none;align=left;verticalAlign=middle;spacingTop=-1;spacingLeft=3;spacingRight=3;rotatable=0;labelPosition=right;points=[];portConstraint=eastwest;strokeColor=inherit;fontFamily=Courier New;fontSize=12;fontColor=#EEEEEE;fontStyle=1;labelBackgroundColor=none;" vertex="1" parent="0W-4UYzcIwwv0_ICQPqD-22">
          <mxGeometry y="43" width="335" height="8" as="geometry" />
        </mxCell>
        <mxCell id="0W-4UYzcIwwv0_ICQPqD-25" value="+ fee(amount:double): double" style="text;strokeColor=none;fillColor=none;align=left;verticalAlign=top;spacingLeft=4;spacingRight=4;overflow=hidden;rotatable=0;points=[[0,0.5],[1,0.5]];portConstraint=eastwest;whiteSpace=wrap;html=1;fontFamily=Courier New;fontSize=12;fontColor=#EEEEEE;fontStyle=1;labelBackgroundColor=none;" vertex="1" parent="0W-4UYzcIwwv0_ICQPqD-22">
          <mxGeometry y="51" width="335" height="26" as="geometry" />
        </mxCell>
        <mxCell id="0W-4UYzcIwwv0_ICQPqD-28" value="+ insterest(amount:double, month:int): double" style="text;strokeColor=none;fillColor=none;align=left;verticalAlign=top;spacingLeft=4;spacingRight=4;overflow=hidden;rotatable=0;points=[[0,0.5],[1,0.5]];portConstraint=eastwest;whiteSpace=wrap;html=1;fontFamily=Courier New;fontSize=12;fontColor=#EEEEEE;fontStyle=1;labelBackgroundColor=none;" vertex="1" parent="0W-4UYzcIwwv0_ICQPqD-22">
          <mxGeometry y="77" width="335" height="26" as="geometry" />
        </mxCell>
        <mxCell id="0W-4UYzcIwwv0_ICQPqD-30" value="PaypalPaymentService" style="swimlane;fontStyle=1;align=center;verticalAlign=middle;childLayout=stackLayout;horizontal=1;startSize=26;horizontalStack=0;resizeParent=1;resizeParentMax=0;resizeLast=0;collapsible=1;marginBottom=0;whiteSpace=wrap;html=1;strokeColor=#BAC8D3;fontFamily=Courier New;fontSize=12;fontColor=#EEEEEE;labelBackgroundColor=none;fillColor=#09555B;" vertex="1" parent="1">
          <mxGeometry x="418" y="770" width="338" height="86" as="geometry" />
        </mxCell>
        <mxCell id="0W-4UYzcIwwv0_ICQPqD-31" value="" style="line;strokeWidth=1;fillColor=none;align=left;verticalAlign=middle;spacingTop=-1;spacingLeft=3;spacingRight=3;rotatable=0;labelPosition=right;points=[];portConstraint=eastwest;strokeColor=inherit;fontFamily=Courier New;fontSize=12;fontColor=#EEEEEE;fontStyle=1;labelBackgroundColor=none;" vertex="1" parent="0W-4UYzcIwwv0_ICQPqD-30">
          <mxGeometry y="26" width="338" height="8" as="geometry" />
        </mxCell>
        <mxCell id="0W-4UYzcIwwv0_ICQPqD-32" value="+ fee(amount:double): double" style="text;strokeColor=none;fillColor=none;align=left;verticalAlign=top;spacingLeft=4;spacingRight=4;overflow=hidden;rotatable=0;points=[[0,0.5],[1,0.5]];portConstraint=eastwest;whiteSpace=wrap;html=1;fontFamily=Courier New;fontSize=12;fontColor=#EEEEEE;fontStyle=1;labelBackgroundColor=none;" vertex="1" parent="0W-4UYzcIwwv0_ICQPqD-30">
          <mxGeometry y="34" width="338" height="26" as="geometry" />
        </mxCell>
        <mxCell id="0W-4UYzcIwwv0_ICQPqD-33" value="+ insterest(amount:double, month:int): double" style="text;strokeColor=none;fillColor=none;align=left;verticalAlign=top;spacingLeft=4;spacingRight=4;overflow=hidden;rotatable=0;points=[[0,0.5],[1,0.5]];portConstraint=eastwest;whiteSpace=wrap;html=1;fontFamily=Courier New;fontSize=12;fontColor=#EEEEEE;fontStyle=1;labelBackgroundColor=none;" vertex="1" parent="0W-4UYzcIwwv0_ICQPqD-30">
          <mxGeometry y="60" width="338" height="26" as="geometry" />
        </mxCell>
        <mxCell id="0W-4UYzcIwwv0_ICQPqD-36" value="entities" style="shape=umlFrame;whiteSpace=wrap;html=1;pointerEvents=0;strokeColor=#BAC8D3;align=center;verticalAlign=middle;fontFamily=Courier New;fontSize=12;fontColor=#EEEEEE;fontStyle=1;labelBackgroundColor=none;fillColor=#09555B;width=104;height=31;" vertex="1" parent="1">
          <mxGeometry x="371" y="449" width="438" height="165" as="geometry" />
        </mxCell>
        <mxCell id="0W-4UYzcIwwv0_ICQPqD-38" value="payment" style="shape=umlFrame;whiteSpace=wrap;html=1;pointerEvents=0;strokeColor=#BAC8D3;align=center;verticalAlign=middle;fontFamily=Courier New;fontSize=12;fontColor=#EEEEEE;fontStyle=1;labelBackgroundColor=none;fillColor=#09555B;width=104;height=31;" vertex="1" parent="1">
          <mxGeometry x="409" y="732" width="357" height="134" as="geometry" />
        </mxCell>
        <mxCell id="0W-4UYzcIwwv0_ICQPqD-39" value="interfaces" style="shape=umlFrame;whiteSpace=wrap;html=1;pointerEvents=0;strokeColor=#BAC8D3;align=center;verticalAlign=middle;fontFamily=Courier New;fontSize=12;fontColor=#EEEEEE;fontStyle=1;labelBackgroundColor=none;fillColor=#09555B;width=104;height=31;" vertex="1" parent="1">
          <mxGeometry x="835" y="717" width="438" height="165" as="geometry" />
        </mxCell>
      </root>
    </mxGraphModel>
  </diagram>
</mxfile>
